{
    "asset" : {
        "generator" : "Khronos glTF Blender I/O v1.6.16",
        "version" : "2.0"
    },
    "scene" : 0,
    "scenes" : [
        {
            "name" : "Scene",
            "nodes" : [
                0,
                1,
                2,
                3,
                4,
                5,
                6,
                7,
                8,
                9,
                10,
                11,
                12
            ]
        }
    ],
    "nodes" : [
        {
            "mesh" : 0,
            "name" : "camera",
            "rotation" : [
                0,
                -0.7071068286895752,
                0,
                0.7071067690849304
            ],
            "scale" : [
                0.15000000596046448,
                0.15000000596046448,
                0.15000000596046448
            ]
        },
        {
            "mesh" : 1,
            "name" : "tripod",
            "rotation" : [
                0,
                -0.7071068286895752,
                0,
                0.7071067690849304
            ],
            "scale" : [
                0.15000000596046448,
                0.15000000596046448,
                0.15000000596046448
            ]
        },
        {
            "name" : "Light.001",
            "rotation" : [
                0.16907575726509094,
                0.7558803558349609,
                -0.27217137813568115,
                0.570947527885437
            ],
            "translation" : [
                4.076245307922363,
                5.903861999511719,
                -1.0054539442062378
            ]
        },
        {
            "name" : "Camera.001",
            "rotation" : [
                0.48992592096328735,
                0.31189146637916565,
                -0.19322755932807922,
                0.79079669713974
            ],
            "translation" : [
                7.358891487121582,
                4.958309173583984,
                6.925790786743164
            ]
        },
        {
            "mesh" : 2,
            "name" : "NurbsPath",
            "scale" : [
                0.30000001192092896,
                0.30000001192092896,
                0.30000001192092896
            ],
            "translation" : [
                -0.8215919137001038,
                1.6179648637771606,
                -0.09194722771644592
            ]
        },
        {
            "mesh" : 3,
            "name" : "NurbsPath.001",
            "scale" : [
                0.30000001192092896,
                0.30000001192092896,
                0.30000001192092896
            ],
            "translation" : [
                -0.9633315801620483,
                0.7371866703033447,
                0.00951695442199707
            ]
        },
        {
            "mesh" : 4,
            "name" : "Text",
            "rotation" : [
                0.007999490015208721,
                -0.6729387044906616,
                0.7396484017372131,
                -0.003140199463814497
            ],
            "scale" : [
                0.20000000298023224,
                0.20000000298023224,
                0.20000000298023224
            ],
            "translation" : [
                -1.5449892282485962,
                1.5749069452285767,
                -0.11962875723838806
            ]
        },
        {
            "mesh" : 5,
            "name" : "Text.001",
            "rotation" : [
                -0.048842307180166245,
                -0.6775655150413513,
                0.7336447834968567,
                -0.01687811128795147
            ],
            "scale" : [
                0.20000000298023224,
                0.20000000298023224,
                0.20000000298023224
            ],
            "translation" : [
                -1.6401296854019165,
                0.704951286315918,
                0.013253550976514816
            ]
        },
        {
            "mesh" : 6,
            "name" : "Text.002",
            "rotation" : [
                -0.016658801585435867,
                0.6966715455055237,
                -0.7171074748039246,
                -0.011319274082779884
            ],
            "scale" : [
                0.20000000298023224,
                0.20000000298023224,
                0.20000000298023224
            ],
            "translation" : [
                0.6274603009223938,
                2.097935199737549,
                -0.05965757369995117
            ]
        },
        {
            "name" : "Light.002",
            "rotation" : [
                0.16907575726509094,
                0.7558803558349609,
                -0.27217137813568115,
                0.570947527885437
            ],
            "translation" : [
                4.076245307922363,
                5.903861999511719,
                -1.0054539442062378
            ]
        },
        {
            "name" : "Camera.002",
            "rotation" : [
                0.483536034822464,
                0.33687159419059753,
                -0.20870360732078552,
                0.7804827094078064
            ],
            "translation" : [
                7.358891487121582,
                4.958309173583984,
                6.925790786743164
            ]
        },
        {
            "name" : "Light",
            "rotation" : [
                0.16907575726509094,
                0.7558803558349609,
                -0.27217137813568115,
                0.570947527885437
            ],
            "translation" : [
                4.076245307922363,
                5.903861999511719,
                -1.0054539442062378
            ]
        },
        {
            "name" : "Camera",
            "rotation" : [
                0.483536034822464,
                0.33687159419059753,
                -0.20870360732078552,
                0.7804827094078064
            ],
            "translation" : [
                7.358891487121582,
                4.958309173583984,
                6.925790786743164
            ]
        }
    ],
    "materials" : [
        {
            "name" : "camera",
            "normalTexture" : {
                "index" : 0
            },
            "pbrMetallicRoughness" : {
                "baseColorTexture" : {
                    "index" : 1
                },
                "metallicRoughnessTexture" : {
                    "index" : 2
                }
            }
        },
        {
            "name" : "tripod",
            "normalTexture" : {
                "index" : 3
            },
            "pbrMetallicRoughness" : {
                "baseColorTexture" : {
                    "index" : 4
                },
                "metallicRoughnessTexture" : {
                    "index" : 5
                }
            }
        },
        {
            "doubleSided" : true,
            "name" : "Material.002",
            "pbrMetallicRoughness" : {
                "baseColorFactor" : [
                    0.8000000715255737,
                    0.028270697221159935,
                    0.035299960523843765,
                    1
                ],
                "metallicFactor" : 0,
                "roughnessFactor" : 0.5
            }
        },
        {
            "doubleSided" : true,
            "name" : "Material.004",
            "pbrMetallicRoughness" : {
                "baseColorFactor" : [
                    0.013713422231376171,
                    0.006714684888720512,
                    0.8000000715255737,
                    1
                ],
                "metallicFactor" : 0,
                "roughnessFactor" : 0.5
            }
        },
        {
            "doubleSided" : true,
            "name" : "Material.005",
            "pbrMetallicRoughness" : {
                "baseColorFactor" : [
                    0.006702645681798458,
                    0.0008717324235476553,
                    0.008657391183078289,
                    1
                ],
                "metallicFactor" : 0,
                "roughnessFactor" : 0.5
            }
        }
    ],
    "meshes" : [
        {
            "name" : "camera_uv",
            "primitives" : [
                {
                    "attributes" : {
                        "POSITION" : 0,
                        "NORMAL" : 1,
                        "TEXCOORD_0" : 2
                    },
                    "indices" : 3,
                    "material" : 0
                }
            ]
        },
        {
            "name" : "tripod_uv",
            "primitives" : [
                {
                    "attributes" : {
                        "POSITION" : 4,
                        "NORMAL" : 5,
                        "TEXCOORD_0" : 6
                    },
                    "indices" : 7,
                    "material" : 1
                }
            ]
        },
        {
            "name" : "NurbsPath",
            "primitives" : [
                {
                    "attributes" : {
                        "POSITION" : 8,
                        "NORMAL" : 9,
                        "TEXCOORD_0" : 10
                    },
                    "indices" : 11,
                    "material" : 2
                }
            ]
        },
        {
            "name" : "NurbsPath.001",
            "primitives" : [
                {
                    "attributes" : {
                        "POSITION" : 12,
                        "NORMAL" : 13,
                        "TEXCOORD_0" : 14
                    },
                    "indices" : 11,
                    "material" : 2
                }
            ]
        },
        {
            "name" : "Text",
            "primitives" : [
                {
                    "attributes" : {
                        "POSITION" : 15,
                        "NORMAL" : 16,
                        "TEXCOORD_0" : 17
                    },
                    "indices" : 18,
                    "material" : 3
                }
            ]
        },
        {
            "name" : "Text.001",
            "primitives" : [
                {
                    "attributes" : {
                        "POSITION" : 19,
                        "NORMAL" : 20,
                        "TEXCOORD_0" : 21
                    },
                    "indices" : 22,
                    "material" : 3
                }
            ]
        },
        {
            "name" : "Text.002",
            "primitives" : [
                {
                    "attributes" : {
                        "POSITION" : 23,
                        "NORMAL" : 24,
                        "TEXCOORD_0" : 25
                    },
                    "indices" : 26,
                    "material" : 4
                }
            ]
        }
    ],
    "textures" : [
        {
            "sampler" : 0,
            "source" : 0
        },
        {
            "sampler" : 0,
            "source" : 1
        },
        {
            "sampler" : 0,
            "source" : 2
        },
        {
            "sampler" : 0,
            "source" : 3
        },
        {
            "sampler" : 0,
            "source" : 4
        },
        {
            "sampler" : 0,
            "source" : 5
        }
    ],
    "images" : [
        {
            "mimeType" : "image/png",
            "name" : "camera_camera_Normal",
            "uri" : "camera_camera_Normal.png"
        },
        {
            "mimeType" : "image/png",
            "name" : "camera_camera_BaseColor",
            "uri" : "camera_camera_BaseColor.png"
        },
        {
            "mimeType" : "image/png",
            "name" : "camera_camera_Roughness",
            "uri" : "camera_camera_Roughness.png"
        },
        {
            "mimeType" : "image/png",
            "name" : "camera_tripod_Normal",
            "uri" : "camera_tripod_Normal.png"
        },
        {
            "mimeType" : "image/png",
            "name" : "camera_tripod_BaseColor",
            "uri" : "camera_tripod_BaseColor.png"
        },
        {
            "mimeType" : "image/png",
            "name" : "camera_tripod_Roughness",
            "uri" : "camera_tripod_Roughness.png"
        }
    ],
    "accessors" : [
        {
            "bufferView" : 0,
            "componentType" : 5126,
            "count" : 18753,
            "max" : [
                1.8916611671447754,
                12.645012855529785,
                1.2003434896469116
            ],
            "min" : [
                -1.8916611671447754,
                9.395228385925293,
                -1.200343370437622
            ],
            "type" : "VEC3"
        },
        {
            "bufferView" : 1,
            "componentType" : 5126,
            "count" : 18753,
            "type" : "VEC3"
        },
        {
            "bufferView" : 2,
            "componentType" : 5126,
            "count" : 18753,
            "type" : "VEC2"
        },
        {
            "bufferView" : 3,
            "componentType" : 5123,
            "count" : 41838,
            "type" : "SCALAR"
        },
        {
            "bufferView" : 4,
            "componentType" : 5126,
            "count" : 10070,
            "max" : [
                2.6307950019836426,
                9.506563186645508,
                2.852458953857422
            ],
            "min" : [
                -3.324300527572632,
                -0.0014147758483886719,
                -1.7042126655578613
            ],
            "type" : "VEC3"
        },
        {
            "bufferView" : 5,
            "componentType" : 5126,
            "count" : 10070,
            "type" : "VEC3"
        },
        {
            "bufferView" : 6,
            "componentType" : 5126,
            "count" : 10070,
            "type" : "VEC2"
        },
        {
            "bufferView" : 7,
            "componentType" : 5123,
            "count" : 18360,
            "type" : "SCALAR"
        },
        {
            "bufferView" : 8,
            "componentType" : 5126,
            "count" : 242,
            "max" : [
                1.999999761581421,
                0.06000000983476639,
                -0.02999996952712536
            ],
            "min" : [
                -2,
                -0.06000000983476639,
                -0.029999980702996254
            ],
            "type" : "VEC3"
        },
        {
            "bufferView" : 9,
            "componentType" : 5126,
            "count" : 242,
            "type" : "VEC3"
        },
        {
            "bufferView" : 10,
            "componentType" : 5126,
            "count" : 242,
            "type" : "VEC2"
        },
        {
            "bufferView" : 11,
            "componentType" : 5123,
            "count" : 282,
            "type" : "SCALAR"
        },
        {
            "bufferView" : 12,
            "componentType" : 5126,
            "count" : 242,
            "max" : [
                1.999999761581421,
                0.06000000983476639,
                -0.02999996952712536
            ],
            "min" : [
                -2,
                -0.06000000983476639,
                -0.029999980702996254
            ],
            "type" : "VEC3"
        },
        {
            "bufferView" : 13,
            "componentType" : 5126,
            "count" : 242,
            "type" : "VEC3"
        },
        {
            "bufferView" : 14,
            "componentType" : 5126,
            "count" : 242,
            "type" : "VEC2"
        },
        {
            "bufferView" : 15,
            "componentType" : 5126,
            "count" : 5058,
            "max" : [
                3.942390203475952,
                0.06999999284744263,
                0.01900637149810791
            ],
            "min" : [
                0.03797975182533264,
                -0.06999999284744263,
                -0.7010059952735901
            ],
            "type" : "VEC3"
        },
        {
            "bufferView" : 16,
            "componentType" : 5126,
            "count" : 5058,
            "type" : "VEC3"
        },
        {
            "bufferView" : 17,
            "componentType" : 5126,
            "count" : 5058,
            "type" : "VEC2"
        },
        {
            "bufferView" : 18,
            "componentType" : 5123,
            "count" : 23100,
            "type" : "SCALAR"
        },
        {
            "bufferView" : 19,
            "componentType" : 5126,
            "count" : 6562,
            "max" : [
                3.505018711090088,
                0.06999999284744263,
                0.019018754363059998
            ],
            "min" : [
                0.007000001147389412,
                -0.06999999284744263,
                -0.7010182738304138
            ],
            "type" : "VEC3"
        },
        {
            "bufferView" : 20,
            "componentType" : 5126,
            "count" : 6562,
            "type" : "VEC3"
        },
        {
            "bufferView" : 21,
            "componentType" : 5126,
            "count" : 6562,
            "type" : "VEC2"
        },
        {
            "bufferView" : 22,
            "componentType" : 5123,
            "count" : 29928,
            "type" : "SCALAR"
        },
        {
            "bufferView" : 23,
            "componentType" : 5126,
            "count" : 7801,
            "max" : [
                6.705000400543213,
                0.06999999284744263,
                0.14945091307163239
            ],
            "min" : [
                -0.015145078301429749,
                -0.06999999284744263,
                -0.7010170817375183
            ],
            "type" : "VEC3"
        },
        {
            "bufferView" : 24,
            "componentType" : 5126,
            "count" : 7801,
            "type" : "VEC3"
        },
        {
            "bufferView" : 25,
            "componentType" : 5126,
            "count" : 7801,
            "type" : "VEC2"
        },
        {
            "bufferView" : 26,
            "componentType" : 5123,
            "count" : 35532,
            "type" : "SCALAR"
        }
    ],
    "bufferViews" : [
        {
            "buffer" : 0,
            "byteLength" : 225036,
            "byteOffset" : 0
        },
        {
            "buffer" : 0,
            "byteLength" : 225036,
            "byteOffset" : 225036
        },
        {
            "buffer" : 0,
            "byteLength" : 150024,
            "byteOffset" : 450072
        },
        {
            "buffer" : 0,
            "byteLength" : 83676,
            "byteOffset" : 600096
        },
        {
            "buffer" : 0,
            "byteLength" : 120840,
            "byteOffset" : 683772
        },
        {
            "buffer" : 0,
            "byteLength" : 120840,
            "byteOffset" : 804612
        },
        {
            "buffer" : 0,
            "byteLength" : 80560,
            "byteOffset" : 925452
        },
        {
            "buffer" : 0,
            "byteLength" : 36720,
            "byteOffset" : 1006012
        },
        {
            "buffer" : 0,
            "byteLength" : 2904,
            "byteOffset" : 1042732
        },
        {
            "buffer" : 0,
            "byteLength" : 2904,
            "byteOffset" : 1045636
        },
        {
            "buffer" : 0,
            "byteLength" : 1936,
            "byteOffset" : 1048540
        },
        {
            "buffer" : 0,
            "byteLength" : 564,
            "byteOffset" : 1050476
        },
        {
            "buffer" : 0,
            "byteLength" : 2904,
            "byteOffset" : 1051040
        },
        {
            "buffer" : 0,
            "byteLength" : 2904,
            "byteOffset" : 1053944
        },
        {
            "buffer" : 0,
            "byteLength" : 1936,
            "byteOffset" : 1056848
        },
        {
            "buffer" : 0,
            "byteLength" : 60696,
            "byteOffset" : 1058784
        },
        {
            "buffer" : 0,
            "byteLength" : 60696,
            "byteOffset" : 1119480
        },
        {
            "buffer" : 0,
            "byteLength" : 40464,
            "byteOffset" : 1180176
        },
        {
            "buffer" : 0,
            "byteLength" : 46200,
            "byteOffset" : 1220640
        },
        {
            "buffer" : 0,
            "byteLength" : 78744,
            "byteOffset" : 1266840
        },
        {
            "buffer" : 0,
            "byteLength" : 78744,
            "byteOffset" : 1345584
        },
        {
            "buffer" : 0,
            "byteLength" : 52496,
            "byteOffset" : 1424328
        },
        {
            "buffer" : 0,
            "byteLength" : 59856,
            "byteOffset" : 1476824
        },
        {
            "buffer" : 0,
            "byteLength" : 93612,
            "byteOffset" : 1536680
        },
        {
            "buffer" : 0,
            "byteLength" : 93612,
            "byteOffset" : 1630292
        },
        {
            "buffer" : 0,
            "byteLength" : 62408,
            "byteOffset" : 1723904
        },
        {
            "buffer" : 0,
            "byteLength" : 71064,
            "byteOffset" : 1786312
        }
    ],
    "samplers" : [
        {
            "magFilter" : 9729,
            "minFilter" : 9987
        }
    ],
    "buffers" : [
        {
            "byteLength" : 1857376,
            "uri" : "finalsmall.bin"
        }
    ]
}
