{
    "asset" : {
        "generator" : "Khronos glTF Blender I/O v1.6.16",
        "version" : "2.0"
    },
    "scene" : 0,
    "scenes" : [
        {
            "name" : "Scene",
            "nodes" : [
                9,
                10,
                11
            ]
        }
    ],
    "nodes" : [
        {
            "name" : "Object_7"
        },
        {
            "children" : [
                0
            ],
            "name" : "Camera.001",
            "rotation" : [
                -0.2125573456287384,
                0.9047969579696655,
                -0.08438929170370102,
                0.35922184586524963
            ],
            "scale" : [
                99.99999237060547,
                100.00000762939453,
                99.99999237060547
            ],
            "translation" : [
                735.88916015625,
                495.8309326171875,
                692.5791015625
            ]
        },
        {
            "name" : "Object_5"
        },
        {
            "children" : [
                2
            ],
            "name" : "Object_4",
            "rotation" : [
                0.7071068286895752,
                0,
                0,
                0.7071068286895752
            ]
        },
        {
            "children" : [
                3
            ],
            "name" : "Light.001",
            "rotation" : [
                0.16907569766044617,
                0.7558803558349609,
                -0.2721713185310364,
                0.570947527885437
            ],
            "scale" : [
                100.00000762939453,
                100,
                100
            ],
            "translation" : [
                407.6245422363281,
                590.38623046875,
                -100.54539489746094
            ]
        },
        {
            "mesh" : 0,
            "name" : "Router_Router_0",
            "scale" : [
                10,
                10,
                10
            ]
        },
        {
            "children" : [
                5
            ],
            "name" : "Router"
        },
        {
            "children" : [
                1,
                4,
                6
            ],
            "name" : "RootNode"
        },
        {
            "children" : [
                7
            ],
            "name" : "d248a8611e664507829a2c0bdabe2f77.fbx",
            "rotation" : [
                0.7071068286895752,
                0,
                0,
                0.7071068286895752
            ],
            "scale" : [
                0.009999999776482582,
                0.009999999776482582,
                0.009999999776482582
            ]
        },
        {
            "children" : [
                8
            ],
            "name" : "Sketchfab_model",
            "rotation" : [
                -0.7071068286895752,
                0,
                0,
                0.7071068286895752
            ]
        },
        {
            "name" : "Light",
            "rotation" : [
                0.16907575726509094,
                0.7558803558349609,
                -0.27217137813568115,
                0.570947527885437
            ],
            "translation" : [
                4.076245307922363,
                5.903861999511719,
                -1.0054539442062378
            ]
        },
        {
            "name" : "Camera",
            "rotation" : [
                0.483536034822464,
                0.33687159419059753,
                -0.20870360732078552,
                0.7804827094078064
            ],
            "translation" : [
                7.358891487121582,
                4.958309173583984,
                6.925790786743164
            ]
        }
    ],
    "materials" : [
        {
            "doubleSided" : true,
            "emissiveFactor" : [
                1,
                1,
                1
            ],
            "emissiveTexture" : {
                "index" : 0
            },
            "name" : "Router",
            "normalTexture" : {
                "index" : 1
            },
            "pbrMetallicRoughness" : {
                "baseColorTexture" : {
                    "index" : 2
                },
                "metallicRoughnessTexture" : {
                    "index" : 3
                }
            }
        }
    ],
    "meshes" : [
        {
            "name" : "Router_Router_0",
            "primitives" : [
                {
                    "attributes" : {
                        "POSITION" : 0,
                        "NORMAL" : 1,
                        "TEXCOORD_0" : 2,
                        "TEXCOORD_1" : 3,
                        "TEXCOORD_2" : 4
                    },
                    "indices" : 5,
                    "material" : 0
                }
            ]
        }
    ],
    "textures" : [
        {
            "sampler" : 0,
            "source" : 0
        },
        {
            "sampler" : 0,
            "source" : 1
        },
        {
            "sampler" : 0,
            "source" : 2
        },
        {
            "sampler" : 0,
            "source" : 3
        }
    ],
    "images" : [
        {
            "mimeType" : "image/png",
            "name" : "Router_emissive",
            "uri" : "Router_emissive.png"
        },
        {
            "mimeType" : "image/png",
            "name" : "Router_normal",
            "uri" : "Router_normal.png"
        },
        {
            "mimeType" : "image/png",
            "name" : "Router_baseColor",
            "uri" : "Router_baseColor.png"
        },
        {
            "mimeType" : "image/png",
            "name" : "Router_metallicRoughness",
            "uri" : "Router_metallicRoughness.png"
        }
    ],
    "accessors" : [
        {
            "bufferView" : 0,
            "componentType" : 5126,
            "count" : 2201,
            "max" : [
                10.196311950683594,
                16.51625633239746,
                6.777800559997559
            ],
            "min" : [
                -10.095290184020996,
                -3.270451307296753,
                -9.502062797546387
            ],
            "type" : "VEC3"
        },
        {
            "bufferView" : 1,
            "componentType" : 5126,
            "count" : 2201,
            "type" : "VEC3"
        },
        {
            "bufferView" : 2,
            "componentType" : 5126,
            "count" : 2201,
            "type" : "VEC2"
        },
        {
            "bufferView" : 3,
            "componentType" : 5126,
            "count" : 2201,
            "type" : "VEC2"
        },
        {
            "bufferView" : 4,
            "componentType" : 5126,
            "count" : 2201,
            "type" : "VEC2"
        },
        {
            "bufferView" : 5,
            "componentType" : 5123,
            "count" : 4341,
            "type" : "SCALAR"
        }
    ],
    "bufferViews" : [
        {
            "buffer" : 0,
            "byteLength" : 26412,
            "byteOffset" : 0
        },
        {
            "buffer" : 0,
            "byteLength" : 26412,
            "byteOffset" : 26412
        },
        {
            "buffer" : 0,
            "byteLength" : 17608,
            "byteOffset" : 52824
        },
        {
            "buffer" : 0,
            "byteLength" : 17608,
            "byteOffset" : 70432
        },
        {
            "buffer" : 0,
            "byteLength" : 17608,
            "byteOffset" : 88040
        },
        {
            "buffer" : 0,
            "byteLength" : 8682,
            "byteOffset" : 105648
        }
    ],
    "samplers" : [
        {
            "magFilter" : 9729,
            "minFilter" : 9987
        }
    ],
    "buffers" : [
        {
            "byteLength" : 114332,
            "uri" : "rout.bin"
        }
    ]
}
